HIERARCHY
ROOT SpineBase
{
  OFFSET 0.000000 0.000000 0.000000
  CHANNELS 6 Xposition Yposition Zposition Zrotation Xrotation Yrotation
  JOINT SpineMid
  {
    OFFSET 0.000000 31.025024 0.000000
    CHANNELS 3 Zrotation Xrotation Yrotation
    JOINT SpineShoulder
    {
      OFFSET -0.080614 23.100612 -0.606263
      CHANNELS 3 Zrotation Xrotation Yrotation
      JOINT Neck
      {
        OFFSET -0.078455 7.686478 -0.487405
        CHANNELS 3 Zrotation Xrotation Yrotation
        JOINT Head
        {
          OFFSET 4.559404 11.883027 1.510218
          CHANNELS 3 Zrotation Xrotation Yrotation
          End Site
          {
            OFFSET 0 0 0
          }
        }
      }
      JOINT ShoulderLeft
      {
        OFFSET -9.479985 -4.628835 -11.257419
        CHANNELS 3 Zrotation Xrotation Yrotation
        JOINT ElbowLeft
        {
          OFFSET -8.376721 -25.292064 1.524346
          CHANNELS 3 Zrotation Xrotation Yrotation
          JOINT WristLeft
          {
            OFFSET -2.927326 -21.121175 -1.086771
            CHANNELS 3 Zrotation Xrotation Yrotation
            JOINT HandLeft
            {
              OFFSET 0.352739 -6.223155 1.446011
              CHANNELS 3 Zrotation Xrotation Yrotation
              JOINT HandTipLeft
              {
                OFFSET -1.099343 -6.921911 1.531093
                CHANNELS 3 Zrotation Xrotation Yrotation
                End Site
                {
                  OFFSET 0 0 0
                }
              }
              JOINT ThumbLeft
              {
                OFFSET -2.618972 2.078829 -3.242948
                CHANNELS 3 Zrotation Xrotation Yrotation
                End Site
                {
                  OFFSET 0 0 0
                }
              }
            }
          }
        }
      }
      JOINT ShoulderRight
      {
        OFFSET 14.048229 -7.808757 4.423470
        CHANNELS 3 Zrotation Xrotation Yrotation
        JOINT ElbowRight
        {
          OFFSET 3.972863 -25.166444 6.126881
          CHANNELS 3 Zrotation Xrotation Yrotation
          JOINT WristRight
          {
            OFFSET 0.497990 -26.373868 2.617096
            CHANNELS 3 Zrotation Xrotation Yrotation
            JOINT HandRight
            {
              OFFSET 0.955577 -4.826673 1.575139
              CHANNELS 3 Zrotation Xrotation Yrotation
              JOINT HandTipRight
              {
                OFFSET 0.809456 -6.276738 0.030545
                CHANNELS 3 Zrotation Xrotation Yrotation
                End Site
                {
                  OFFSET 0 0 0
                }
              }
              JOINT ThumbRight
              {
                OFFSET -3.215767 -1.332631 -3.711321
                CHANNELS 3 Zrotation Xrotation Yrotation
                End Site
                {
                  OFFSET 0 0 0
                }
              }
            }
          }
        }
      }
    }
  }
  JOINT HipLeft
  {
    OFFSET -6.288618 2.198295 -5.889138
    CHANNELS 3 Zrotation Xrotation Yrotation
    JOINT KneeLeft
    {
      OFFSET -2.829236 -37.680514 -0.125420
      CHANNELS 3 Zrotation Xrotation Yrotation
      JOINT AnkleLeft
      {
        OFFSET -6.791565 -32.635010 -0.011726
        CHANNELS 3 Zrotation Xrotation Yrotation
        JOINT FootLeft
        {
          OFFSET 2.881369 -7.761005 -2.756268
          CHANNELS 3 Zrotation Xrotation Yrotation
          End Site
          {
            OFFSET 0 0 0
          }
        }
      }
    }
  }
  JOINT HipRight
  {
    OFFSET 5.063211 -0.481142 -0.744695
    CHANNELS 3 Zrotation Xrotation Yrotation
    JOINT KneeRight
    {
      OFFSET 4.004569 -34.452514 13.557287
      CHANNELS 3 Zrotation Xrotation Yrotation
      JOINT AnkleRight
      {
        OFFSET -7.572280 -32.185305 4.500431
        CHANNELS 3 Zrotation Xrotation Yrotation
        JOINT FootRight
        {
          OFFSET 5.055283 -4.349706 -9.758125
          CHANNELS 3 Zrotation Xrotation Yrotation
          End Site
          {
            OFFSET 0 0 0
          }
        }
      }
    }
  }
}
MOTION
Frames: 6
Frame Time: 0.033333
69.892181 76.923114 382.741463 -0.137852 0.265916 -25.616051 0.239269 -0.180180 25.616747 -0.000000 0.000000 0.000000 -0.000000 0.000000 0.000000 0.000000 0.000000 0.000000 1.266624 -0.164346 0.133066 1.813629 -1.091077 -0.089612 6.472044 -1.750626 2.093096 -6.446978 13.339018 -3.246073 0.000000 0.000000 0.000000 0.000000 0.000000 0.000000 -0.000000 0.000000 0.000000 1.403578 -0.018432 0.139128 -12.092310 17.605451 1.637303 -0.366420 -12.629737 -0.753043 0.000000 0.000000 0.000000 0.000000 0.000000 0.000000 -0.212621 -0.978995 25.654079 0.753204 0.524392 -0.045350 -5.232600 -3.529199 0.398751 0.000000 0.000000 0.000000 0.115871 0.884320 25.873406 -0.260539 -2.692751 0.152726 -30.541781 -41.304189 -29.005924 0.000000 0.000000 0.000000
70.022072 76.936047 382.740553 -0.091165 0.257889 -26.111247 0.195363 -0.191445 26.111779 -0.000000 0.000000 0.000000 0.813911 -0.094216 -0.066812 0.000000 0.000000 0.000000 1.065017 0.241527 -0.018106 2.447968 -2.703841 0.265940 7.928322 -0.600725 2.192619 -8.736180 14.843910 -3.928143 0.000000 0.000000 0.000000 0.000000 0.000000 0.000000 -0.000000 0.000000 0.000000 1.309866 0.360960 0.132687 -11.627294 17.766601 1.799564 -0.887713 -14.129863 -1.356844 0.000000 0.000000 0.000000 0.000000 0.000000 0.000000 -0.502951 -1.157502 26.149094 1.052624 0.559329 -0.050673 -4.963591 -2.699716 0.660515 0.000000 0.000000 0.000000 0.232640 0.591469 26.340676 -0.566907 -1.897392 0.024104 -38.459354 -46.120510 -37.104550 0.000000 0.000000 0.000000
70.157040 76.963546 382.732108 -0.058788 0.254760 -26.612534 0.166681 -0.201435 26.612957 -0.000000 0.000000 0.000000 1.150645 -0.205440 -0.065620 0.000000 0.000000 0.000000 0.381248 0.779306 -0.238084 3.529498 -4.678182 0.764965 9.364269 1.546209 2.078822 -10.892041 15.244967 -4.616392 0.000000 0.000000 0.000000 0.000000 0.000000 0.000000 -0.000000 0.000000 0.000000 1.373036 0.792941 0.141790 -10.937750 16.883630 1.692656 -1.053491 -12.312135 -1.109600 0.000000 0.000000 0.000000 0.000000 0.000000 0.000000 -0.759222 -1.300190 26.647807 2.113752 0.301781 -0.004785 -3.021260 3.151655 1.873471 0.000000 0.000000 0.000000 0.166681 -0.201435 26.612957 -0.340321 -1.039781 0.193581 -30.167274 -42.004661 -28.230653 0.000000 0.000000 0.000000
70.291647 76.973461 382.733590 -0.035868 0.233176 -27.213375 0.138531 -0.190963 27.213678 -0.000000 0.000000 0.000000 1.581803 -0.353601 -0.060836 0.000000 0.000000 0.000000 -0.649357 1.679864 -0.585441 4.822804 -6.730723 1.412137 9.467261 1.457995 1.818100 -12.461121 17.987240 -4.820752 0.000000 0.000000 0.000000 0.000000 0.000000 0.000000 -0.000000 0.000000 0.000000 1.264393 1.670325 0.138752 -8.970394 14.410541 1.441734 -2.507424 -13.326921 -1.954223 0.000000 0.000000 0.000000 0.000000 0.000000 0.000000 -0.982517 -1.381697 27.244412 2.293995 0.238204 0.004947 1.561468 11.907621 3.059995 0.000000 0.000000 0.000000 -0.029320 0.614067 27.393016 -0.667230 -1.804100 -0.014135 -30.429368 -42.381397 -27.492507 0.000000 0.000000 0.000000
70.428949 76.968751 382.712481 -0.002260 0.213888 -27.895502 0.102067 -0.187977 27.895674 -0.000000 0.000000 0.000000 1.933304 -0.342580 -0.109251 0.000000 0.000000 0.000000 -2.126631 2.884903 -1.025535 6.560171 -8.821726 2.210124 9.709389 0.745932 1.666726 -14.820675 20.801407 -4.784338 0.000000 0.000000 0.000000 0.000000 0.000000 0.000000 -0.000000 0.000000 0.000000 1.134246 2.538653 0.135638 -8.007904 12.336348 1.166309 -4.229768 -11.383737 -2.004919 0.000000 0.000000 0.000000 0.000000 0.000000 0.000000 -1.181002 -1.465590 27.922604 1.731989 0.527683 -0.053423 8.286510 20.922944 3.088245 0.000000 0.000000 0.000000 -0.568447 0.920586 28.021779 -0.233463 -2.844150 0.190064 -28.381917 -40.324436 -26.693352 0.000000 0.000000 0.000000
70.549022 76.942595 382.665803 -0.000519 0.223078 -28.204890 0.105890 -0.196345 28.205072 -0.000000 0.000000 0.000000 2.292106 -0.335493 -0.157171 0.000000 0.000000 0.000000 -4.520546 4.409145 -1.542825 9.216661 -10.832130 3.211046 8.999931 -0.167597 1.434303 -16.462061 23.258653 -4.384402 0.000000 0.000000 0.000000 0.000000 0.000000 0.000000 -0.000000 0.000000 0.000000 0.989711 3.299586 0.132382 -6.693156 7.970897 0.424493 -4.628474 -5.808702 -0.709197 0.000000 0.000000 0.000000 0.000000 0.000000 0.000000 -1.265493 -1.493182 28.228035 1.821665 0.493566 -0.051031 14.053126 29.249700 2.107795 0.000000 0.000000 0.000000 -1.155284 1.173857 28.243195 0.464327 -3.998071 0.495231 -33.502870 -42.579853 -33.451985 0.000000 0.000000 0.000000
